HIERARCHY
ROOT hip
{
	OFFSET 0.000000 0.000000 0.000000 
	CHANNELS 6 Xposition Yposition Zposition Xrotation Zrotation Yrotation
	JOINT abdomen
	{
		OFFSET 0.000000 3.402643 0.000000 
		CHANNELS 3 Xrotation Zrotation Yrotation
		JOINT chest
		{
			OFFSET 0.000000 8.438565 -0.680529 
			CHANNELS 3 Xrotation Zrotation Yrotation
			JOINT neck
			{
				OFFSET 0.000000 10.207942 -0.272212 
				CHANNELS 3 Xrotation Zrotation Yrotation
				JOINT head
				{
					OFFSET 0.000000 3.130431 0.000000 
					CHANNELS 3 Xrotation Zrotation Yrotation
					End Site
					{
						OFFSET 0.000000 3.130435 0.000000 
					}
				}
			}
			JOINT lCollar
			{
				OFFSET 3.470700 6.669187 -0.816635 
				CHANNELS 3 Yrotation Zrotation Xrotation
				JOINT lShldr
				{
					OFFSET 3.198488 0.000000 0.000000 
					CHANNELS 3 Zrotation Yrotation Xrotation
					JOINT lForeArm
					{
						OFFSET 10.139888 0.000000 0.000000 
						CHANNELS 3 Yrotation Zrotation Xrotation
						JOINT lHand
						{
							OFFSET 8.370511 0.000000 0.000000 
							CHANNELS 3 Zrotation Yrotation Xrotation
							End Site
							{
								OFFSET 4.083176 0.000000 0.000000 
							}
						}
					}
				}
			}
			JOINT rCollar
			{
				OFFSET -3.470700 6.669187 -0.816635 
				CHANNELS 3 Yrotation Zrotation Xrotation
				JOINT rShldr
				{
					OFFSET -3.198488 0.000000 0.000000 
					CHANNELS 3 Zrotation Yrotation Xrotation
					JOINT rForeArm
					{
						OFFSET -10.139888 0.000000 0.000000 
						CHANNELS 3 Yrotation Zrotation Xrotation
						JOINT rHand
						{
							OFFSET -8.370511 0.000000 0.000000 
							CHANNELS 3 Zrotation Yrotation Xrotation
							End Site
							{
								OFFSET -4.083176 0.000000 0.000000 
							}
						}
					}
				}
			}
		}
	}
	JOINT lThigh
	{
		OFFSET 5.308129 -1.633274 1.361059 
		CHANNELS 3 Xrotation Zrotation Yrotation
		JOINT lShin
		{
			OFFSET -2.041588 -20.007561 0.000000 
			CHANNELS 3 Xrotation Zrotation Yrotation
			JOINT lFoot
			{
				OFFSET 0.000000 -19.190928 -1.224953 
				CHANNELS 3 Xrotation Yrotation Zrotation
				End Site
				{
					OFFSET 0.000000 -2.449906 4.627600 
				}
			}
		}
	}
	JOINT rThigh
	{
		OFFSET -5.308129 -1.633274 1.361059 
		CHANNELS 3 Xrotation Zrotation Yrotation
		JOINT rShin
		{
			OFFSET 2.041588 -20.007561 0.000000 
			CHANNELS 3 Xrotation Zrotation Yrotation
			JOINT rFoot
			{
				OFFSET 0.000000 -19.190928 -1.224953 
				CHANNELS 3 Xrotation Yrotation Zrotation
				End Site
				{
					OFFSET 0.000000 -2.449906 4.627600 
				}
			}
		}
	}
}
MOTION
Frames: 16
Frame Time: 0.033333
2.300499 40.535927 2.300499 -12.752179 23.103718 79.765480 16.638308 12.950142 -19.639816 6.406431 -0.378870 5.859441 -8.544920 -0.009766 -0.009767 24.500612 3.659048 -73.344986 1.992188 -2.001953 0.000341 -68.772171 -111.523743 -2.405206 -42.585148 -0.624201 8.510277 -45.810341 48.594433 -77.565155 -2.001953 1.992188 0.000000 44.875355 -2.373422 -51.487907 41.315792 0.605630 8.479293 0.348544 -23.478397 -24.217440 -41.908421 4.012909 0.357330 38.095505 -0.832138 -2.922541 34.698784 -1.168509 -1.881125 -58.729168 -4.111069 -0.375085 38.732239 0.755600 2.900020 39.876163 1.306236 1.662183 
2.300499 40.536755 2.300499 -12.752179 23.103718 79.765480 16.638308 12.950142 -19.639816 6.406431 -0.378870 5.859441 -8.544920 -0.009766 -0.009767 24.500612 3.659048 -73.344986 1.992188 -2.001953 0.000341 -68.772171 -111.523743 -2.405206 -42.585148 -0.624201 8.510277 -45.810341 48.594433 -77.565155 -2.001953 1.992188 0.000000 44.875355 -2.373422 -51.487907 41.315792 0.605630 8.479293 0.348544 -23.478397 -24.217440 -41.908421 4.012912 0.357330 38.095505 -0.832136 -2.922541 34.698784 -1.168507 -1.881125 -58.729168 -4.111069 -0.375085 38.732239 0.755597 2.900020 39.876163 1.306236 1.662183 
2.300499 40.537594 2.300499 -12.752179 23.103718 79.765480 16.329519 13.257430 -22.101242 6.406431 -0.378870 5.859441 -8.544920 -0.009766 -0.009767 24.776854 3.199372 -71.574333 1.992188 -2.001953 0.000341 -75.214294 -109.601486 4.467239 -46.494808 -0.602093 8.539906 -48.979206 50.385544 -80.862358 -2.001953 1.992188 0.000000 49.349926 -4.314536 -49.620987 50.802544 0.550676 8.562494 0.348544 -23.478397 -24.217440 -42.861588 4.012560 0.348496 38.319805 -0.822364 -2.940256 35.422134 -1.176822 -1.869940 -59.397572 -4.111233 -0.348291 38.733219 0.761686 2.872958 40.529953 1.333264 1.669747 
2.300499 40.538425 2.300499 -12.752179 23.103718 79.765480 16.009602 13.543224 -24.562607 6.406431 -0.378870 5.859441 -8.544920 -0.009766 -0.009767 25.027344 2.733204 -69.824997 1.992188 -2.001953 0.000341 -82.945473 -107.996895 12.632101 -50.399212 -0.581092 8.573721 -52.430382 52.063065 -84.427132 -2.001953 1.992188 0.000000 53.777500 -6.396814 -47.909046 60.286076 0.501304 8.651453 0.348544 -23.478397 -24.217440 -43.813766 4.012896 0.349783 38.534698 -0.812582 -2.947763 36.143959 -1.218133 -1.832306 -60.074261 -4.111198 -0.341606 38.733437 0.771507 2.866506 41.204205 1.347070 1.630856 
2.300499 40.539257 2.300499 -12.752179 23.103718 79.765480 16.122015 13.446336 -23.745529 6.406431 -0.378870 5.859441 -8.544920 -0.009766 -0.009767 24.938833 2.888605 -70.161621 1.992188 -2.001953 0.000341 -80.236183 -108.492439 9.781719 -49.091805 -0.591906 8.561302 -51.246525 51.524605 -83.204453 -2.001953 1.992188 0.000000 54.532127 -7.346093 -48.707695 60.832615 0.513029 8.659972 0.383738 -23.471703 -24.219919 -45.040466 4.012436 0.353000 39.725361 -0.747907 -3.014421 36.192707 -1.219772 -1.840832 -60.485088 -4.111246 -0.351131 38.752747 0.761707 2.873929 41.584621 1.367782 1.624303 
2.300499 40.540092 2.300499 -12.752179 23.103718 79.765480 16.220671 13.344708 -22.928219 6.406431 -0.378870 5.859441 -8.544920 -0.009766 -0.009767 24.858639 3.042871 -70.509933 1.992188 -2.001953 0.000341 -77.663406 -109.034492 7.060564 -47.787083 -0.601068 8.552276 -50.102604 50.973507 -82.021622 -2.001953 1.992188 0.000000 55.308392 -8.284356 -49.529655 61.369808 0.504824 8.668754 0.425492 -23.469376 -24.216063 -46.287094 4.013206 0.348100 40.906635 -0.695674 -3.064488 36.241665 -1.218816 -1.840015 -60.895905 -4.111290 -0.360731 38.771904 0.761734 2.884592 41.975864 1.365119 1.617548 
2.300499 40.535095 2.300499 -12.752179 23.103718 79.765480 16.165926 12.831705 -23.751869 6.406431 -0.378870 5.859441 -8.544920 -0.009766 -0.009767 25.085403 3.493651 -68.560410 1.992188 -2.001953 0.000341 -78.214241 -109.553925 8.473741 -47.246326 -0.596570 8.544802 -50.408283 51.197159 -82.400749 -2.001953 1.992188 0.000000 53.501335 -6.012058 -48.758434 54.729221 0.527360 8.601939 0.425492 -23.469376 -24.216063 -47.561470 4.022485 0.350634 42.955460 -0.588610 -3.175005 35.461601 -1.170140 -1.868955 -60.874954 -4.110716 -0.378950 38.800705 0.745824 2.900163 41.926739 1.371828 1.609228 
2.300499 40.530087 2.300499 -12.752179 23.103718 79.765480 16.121571 12.313500 -24.565611 6.406431 -0.378870 5.859441 -8.544920 -0.009766 -0.009767 25.335915 3.932773 -66.608398 1.992188 -2.001953 0.000341 -78.743713 -110.086540 9.857590 -46.705208 -0.607210 8.548236 -50.712547 51.430367 -82.788849 -2.001953 1.992188 0.000000 51.726994 -3.723038 -48.068447 48.096676 0.561829 8.534974 0.425492 -23.469376 -24.216063 -48.846703 4.023036 0.348311 44.984711 -0.481495 -3.271792 34.680370 -1.145481 -1.889403 -60.865189 -4.110747 -0.378481 38.839745 0.745861 2.902098 41.888466 1.351785 1.619118 
2.300499 40.480019 2.300499 -12.752179 23.103718 79.765480 15.439142 11.984818 -28.216816 6.406431 -0.378870 5.859441 -8.544920 -0.009766 -0.009767 26.208523 3.797800 -62.900955 1.992188 -2.001953 0.000341 -87.815536 -109.075508 20.239023 -49.897697 -0.585643 8.578627 -54.689972 53.176315 -86.919235 -2.001953 1.992188 0.000000 51.873196 -1.685679 -44.957298 46.670067 0.578289 8.522154 0.209105 -23.518299 -24.218483 -50.014435 4.022614 0.341254 47.209576 -0.354854 -3.347483 33.634624 -1.131254 -1.895763 -60.690136 -4.111260 -0.360638 38.888817 0.751830 2.896788 41.653156 1.364453 1.632253 
2.300499 40.429951 2.300499 -12.752179 23.103718 79.765480 14.787078 11.622800 -31.858522 6.406431 -0.378870 5.859441 -8.544920 -0.009766 -0.009767 27.058508 3.608239 -59.203575 1.992188 -2.001953 0.000341 -97.630890 -108.645950 31.365461 -53.101608 -0.563386 8.603410 -59.043091 54.738094 -91.411888 -2.001953 1.992188 0.000000 52.126915 0.339406 -41.841946 45.243710 0.583860 8.518139 -0.008822 -23.553993 -24.217396 -51.172184 4.022196 0.334254 49.412727 -0.220610 -3.463236 32.580513 -1.089094 -1.909110 -60.513664 -4.111146 -0.361964 38.927227 0.745748 2.916078 41.418606 1.360495 1.645435 
2.300499 40.394886 2.300499 -12.752179 23.103718 79.765480 14.364965 11.896151 -31.422604 6.406431 -0.378870 5.859441 -8.544920 -0.009766 -0.009767 27.283955 3.233286 -60.925266 1.992188 -2.001953 0.000341 -98.072273 -108.033188 31.096916 -52.867760 -0.574206 8.600327 -58.277687 54.354088 -90.458000 -2.001953 1.992188 0.000000 53.970524 -2.402660 -42.021027 52.326618 0.533411 8.578794 -0.458839 -23.684973 -24.223991 -51.906574 4.022704 0.347270 51.158352 -0.120849 -3.530106 31.564899 -1.057020 -1.931491 -60.190002 -4.110834 -0.366052 38.966267 0.745780 2.918012 41.097134 1.337792 1.623494 
2.300499 40.359833 2.300499 -12.752179 23.103718 79.765480 13.953387 12.180427 -30.975916 6.406431 -0.378870 5.859441 -8.544920 -0.009766 -0.009767 27.514660 2.867959 -62.638107 1.992188 -2.001953 0.000341 -98.485680 -107.419571 30.792276 -52.636772 -0.565909 8.596521 -57.526196 53.961460 -89.518433 -2.001953 1.992188 0.000000 55.824890 -5.130919 -42.283127 59.397320 0.511120 8.645913 -0.915344 -23.797277 -24.214888 -52.642384 4.022669 0.341734 52.912838 -0.023730 -3.615429 30.569666 -1.010151 -1.951610 -59.877522 -4.111119 -0.351491 38.996387 0.761761 2.895699 40.764847 1.333989 1.629114 
2.300499 40.452534 2.300499 -12.752179 23.103718 79.765480 15.277683 12.623987 -25.320385 6.406431 -0.378870 5.859441 -8.544920 -0.009766 -0.009767 26.035467 3.344393 -68.824158 1.992188 -2.001953 0.000341 -81.938965 -108.764915 12.515285 -47.608261 -0.594618 8.554426 -51.267326 51.472000 -83.143845 -2.001953 1.992188 0.000000 56.517822 -8.298860 -47.463211 63.888973 0.496764 8.688336 -1.145391 -23.857269 -24.205853 -52.132061 4.022736 0.347682 52.756363 -0.023765 -3.617837 30.197718 -1.014012 -1.957520 -59.533581 -4.110837 -0.364190 38.996483 0.755426 2.893593 40.423008 1.321246 1.662298 
2.300499 40.545219 2.300499 -12.752179 23.103718 79.765480 16.638308 12.950142 -19.639816 6.406431 -0.378870 5.859441 -8.544920 -0.009766 -0.009767 24.504959 3.658800 -75.009766 1.992188 -2.001953 0.000341 -68.772171 -111.523743 -2.405206 -42.585148 -0.624201 8.510277 -45.810341 48.594433 -77.565155 -2.001953 1.992188 0.000000 57.511852 -11.394238 -52.736446 68.370064 0.497752 8.743931 -1.369050 -23.921515 -24.194134 -51.613422 4.022296 0.334542 52.591221 -0.035325 -3.596244 29.816938 -0.999452 -1.971208 -59.192497 -4.111216 -0.338896 38.996750 0.761755 2.886009 40.081837 1.299256 1.658668 
2.300499 40.540161 2.300499 -12.752179 23.103718 79.765480 16.638308 12.950142 -19.639816 6.406431 -0.378870 5.859441 -8.544920 -0.009766 -0.009767 24.502960 3.660212 -74.176254 1.992188 -2.001953 0.000341 -68.772171 -111.523743 -2.405206 -42.585148 -0.624201 8.510277 -45.810341 48.594433 -77.565155 -2.001953 1.992188 0.000000 51.137249 -6.919383 -51.859692 54.836578 0.530062 8.607876 -0.500152 -23.707699 -24.209219 -46.767101 4.023215 0.345746 45.335491 -0.452373 -3.296706 32.267124 -1.094447 -1.923840 -58.956676 -4.111235 -0.347031 38.859745 0.761631 2.888898 39.973869 1.306690 1.669740 
2.300499 40.535095 2.300499 -12.752179 23.103718 79.765480 16.638308 12.950142 -19.639816 6.406431 -0.378870 5.859441 -8.544920 -0.009766 -0.009767 24.500612 3.659048 -73.344986 1.992188 -2.001953 0.000341 -68.772171 -111.523743 -2.405206 -42.585148 -0.624201 8.510277 -45.810341 48.594433 -77.565155 -2.001953 1.992188 0.000000 44.875355 -2.373422 -51.487907 41.315792 0.605630 8.479293 0.348544 -23.478397 -24.217440 -41.908421 4.012909 0.357330 38.095505 -0.832139 -2.922541 34.698784 -1.168509 -1.881125 -58.729168 -4.111069 -0.375084 38.732239 0.755599 2.900020 39.876163 1.306236 1.662183 
